<svg width="77" height="75" viewBox="0 0 77 75" fill="none" xmlns="http://www.w3.org/2000/svg">
<path d="M4.30422 8.2782L9.10356 62.0412V66.6797C9.10779 69.9142 11.7984 72.5349 15.1192 72.5391H27.1504C30.4712 72.5349 33.1618 69.9142 33.1661 66.6797V62.0412L37.9649 8.2782L39.146 3.68317C39.2357 3.33298 39.1554 2.96173 38.927 2.67746C38.699 2.39319 38.3494 2.22656 37.9786 2.22656H4.29106C3.92025 2.22656 3.57107 2.39319 3.34219 2.67746C3.11425 2.96173 3.03389 3.33298 3.12365 3.68317L4.30422 8.2782ZM32.0113 47.9297H10.2587L9.63181 40.8984H32.6378L32.0113 47.9297ZM31.8022 50.2734L30.8599 60.8203H11.4102L10.4679 50.2734H31.8022ZM16.9239 63.1641H25.3457V64.3359C25.3457 64.9832 24.8072 65.5078 24.1426 65.5078H18.127C17.4625 65.5078 16.9239 64.9832 16.9239 64.3359V63.1641ZM30.7598 66.6797C30.7598 68.6211 29.1436 70.1953 27.1504 70.1953H15.1192C13.126 70.1953 11.5098 68.6211 11.5098 66.6797V63.1641H14.5176V64.3359C14.5176 66.2773 16.1339 67.8516 18.127 67.8516H24.1426C26.1358 67.8516 27.752 66.2773 27.752 64.3359V63.1641H30.7598V66.6797ZM32.8469 38.5547H9.42267L6.80681 9.25781H35.4633L32.8469 38.5547ZM36.4371 4.57031L35.8355 6.91406H6.43366L5.8321 4.57031H36.4371Z" fill="#69B99D"/>
<path d="M48.8069 72.5391H65.6506C67.6438 72.5391 69.26 70.9648 69.26 69.0234V24.4922C69.2572 22.1649 67.8402 20.0606 65.6506 19.1295V15.1172C65.6506 14.4699 65.112 13.9453 64.4475 13.9453H60.8381V9.25781H72.8694C73.3558 9.25781 73.7948 8.97217 73.9809 8.53455C74.167 8.09692 74.0636 7.59247 73.72 7.25738L71.3138 4.91363C71.13 4.73465 70.8913 4.61838 70.6342 4.58176L53.7904 2.23801C53.7336 2.23068 53.6762 2.22656 53.6194 2.22656H48.8069C48.1423 2.22656 47.6037 2.75116 47.6037 3.39844V8.08594C47.6037 8.73321 48.1423 9.25781 48.8069 9.25781H53.6194V13.9453H50.01C49.3454 13.9453 48.8069 14.4699 48.8069 15.1172V19.1295C46.6173 20.0606 45.2003 22.1649 45.1975 24.4922V69.0234C45.1975 70.9648 46.8137 72.5391 48.8069 72.5391ZM66.8538 30.3516H47.6037V28.0078H66.8538V30.3516ZM66.8538 56.1328H47.6037V32.6953H66.8538V56.1328ZM65.6506 70.1953H48.8069C48.1423 70.1953 47.6037 69.6707 47.6037 69.0234V58.4766H66.8538V69.0234C66.8538 69.6707 66.3152 70.1953 65.6506 70.1953ZM50.01 4.57031H53.5343L69.8963 6.84723L69.965 6.91406H50.01V4.57031ZM56.0256 9.25781H58.4319V13.9453H56.0256V9.25781ZM51.2131 16.2891H63.2444V18.6328H51.2131V16.2891ZM51.2131 20.9766H63.2444C65.2375 20.9766 66.8538 22.5508 66.8538 24.4922V25.6641H47.6037V24.4922C47.6037 22.5508 49.22 20.9766 51.2131 20.9766Z" fill="#69B99D"/>
<path d="M13.9162 45.5859H28.3537C29.0183 45.5859 29.5568 45.0613 29.5568 44.4141C29.5568 43.7668 29.0183 43.2422 28.3537 43.2422H13.9162C13.2517 43.2422 12.7131 43.7668 12.7131 44.4141C12.7131 45.0613 13.2517 45.5859 13.9162 45.5859Z" fill="#69B99D"/>
<path d="M57.2287 65.5078H52.4162V61.9922C52.4162 61.3449 51.8776 60.8203 51.2131 60.8203C50.5486 60.8203 50.01 61.3449 50.01 61.9922V66.6797C50.01 67.327 50.5486 67.8516 51.2131 67.8516H57.2287C57.8933 67.8516 58.4318 67.327 58.4318 66.6797C58.4318 66.0324 57.8933 65.5078 57.2287 65.5078Z" fill="#69B99D"/>
<path d="M63.2443 65.5078H62.0412C61.3767 65.5078 60.8381 66.0324 60.8381 66.6797C60.8381 67.327 61.3767 67.8516 62.0412 67.8516H63.2443C63.9089 67.8516 64.4475 67.327 64.4475 66.6797C64.4475 66.0324 63.9089 65.5078 63.2443 65.5078Z" fill="#69B99D"/>
<path d="M26.7703 58.417C27.401 58.6207 28.0811 58.2888 28.2907 57.675L29.4938 54.1593C29.7044 53.5446 29.3632 52.8803 28.7315 52.6753C28.0999 52.4711 27.4184 52.8034 27.2083 53.4187L26.0052 56.9343C25.9046 57.2296 25.9286 57.5518 26.0719 57.8297C26.2153 58.108 26.4667 58.319 26.7703 58.417Z" fill="#69B99D"/>
</svg>
